<svg xmlns="http://www.w3.org/2000/svg" viewBox="0 0 982.89 222.96">
  <defs>
    <style>
      .cls-1 {
        fill: #fff;
      }
    </style>
  </defs>
  <g id="Unzer_Logo">
    <path class="cls-1" d="M661.05,302.54V442H603.5V325.38c0-28.75-21.38-44.26-41.51-44.26-17.43,0-31,8.34-44.13,27V442H460.31V339.09a163.27,163.27,0,0,1-17.64,5c-3.09,59.36-45,101.67-102,101.67-59.23,0-102.22-45.7-102.22-108.65V227.92H296v109.2c0,23.57,11.7,51.1,44.67,51.1,30.33,0,42.66-23.3,44.43-45.39-23.9-10.06-38.7-34.3-38.7-66.48,0-33.34,24.86-53,48.83-53,30.68,0,47.67,30.56,47.51,60.93a125.65,125.65,0,0,0,17.61-8.22V227.92h57.55v18.37c19.7-16,37.87-23.18,58.86-23.18,23.18,0,44.54,8.11,60.15,22.84A76.93,76.93,0,0,1,661.05,302.54Zm23-23.88h97.44l-102.67,122-.08.1V442H861.13V391.35H757.88L861.06,267.72l.07-.09V227.92H684Zm363.6-25.61c19.3,19.58,29.5,47.36,29.5,80.34v19.85H922.48c4,26.42,23,42.17,50.86,42.17,23.17,0,43.21-9.32,52.29-24.31l.15-.26.28.13,45.12,20.32-.16.31c-18,34.62-53.93,54.47-98.49,54.47-64,0-107-44.63-107-111.06,0-31.32,11.41-59.88,32.12-80.43A105.58,105.58,0,0,1,972.53,224C1002.88,224,1028.83,234,1047.6,253.05Zm-26.54,55.21c-4.73-22.1-22.84-35.27-48.53-35.27-23.44,0-41.46,13.17-48.29,35.27Zm200.24-81.91A62.74,62.74,0,0,0,1205,224c-18.88,0-37.09,7.29-52.7,21.08V227.92h-57.55V442h57.55V309.23c11.35-21.54,28.77-33.4,49-33.4,0,0,9.12.08,14.8,1.74Z" transform="translate(-238.41 -223.11)"/>
  </g>
</svg>
